# xmcd
#
# Track frame offsets: 
#        150
#        17876
#        30577
#        40382
#        48166
#        60351
#        78024
#        92399
#        108927
#        125843
#        139226
#        150798
#        165933
#        173900
#        195680
#        217956
#
# Disc length: 3205 seconds
#
# Revision: 0
# Processed by: cddbd v1.5.2PL0 Copyright (c) Steve Scherf et al.
# Submitted via: ExactAudioCopy v1.2
#
DISCID=bd0c8310
DTITLE=Sister Rosetta Tharpe - This Train In Concert
DYEAR=2018
DGENRE=Blues
TTITLE0=Up Above My Head I Hear Music In The Air (Live)
TTITLE1=Down By The Riverside (Live)
TTITLE2=That's All (Live)
TTITLE3=Travelin' Shoes (Live)
TTITLE4=Jesus Is Everywhere (Live)
TTITLE5=Joshua Fit The Battle Of Jericho (Live)
TTITLE6=Two Little Fishes, Five Loaves Of Bread (Live)
TTITLE7=Sometimes I Feel Like A Motherless Child (Live)
TTITLE8=Jonah In The Whale (Live)
TTITLE9=Precious Memories (Live)
TTITLE10=When Jesus Was Born (Live)
TTITLE11=Is Everyone Happy (Live)
TTITLE12=Can't Sit Down (Live)
TTITLE13=Nobody Knows The Trouble I've Seen (Live)
TTITLE14=Mansions In The Sky (Live)
TTITLE15=Precious Lord (Live)
EXTD=
EXTT0=
EXTT1=
EXTT2=
EXTT3=
EXTT4=
EXTT5=
EXTT6=
EXTT7=
EXTT8=
EXTT9=
EXTT10=
EXTT11=
EXTT12=
EXTT13=
EXTT14=
EXTT15=
PLAYORDER=
